<mxfile host="Electron" modified="2023-10-15T17:42:04.730Z" agent="Mozilla/5.0 (Windows NT 10.0; Win64; x64) AppleWebKit/537.36 (KHTML, like Gecko) draw.io/22.0.2 Chrome/114.0.5735.289 Electron/25.8.4 Safari/537.36" etag="IgU96nnp92ojuqDn-6Xu" version="22.0.2" type="device">
  <diagram id="cDz6tlUXm6-hDTQI8XgM" name="Page-1">
    <mxGraphModel dx="1615" dy="955" grid="1" gridSize="10" guides="1" tooltips="1" connect="1" arrows="1" fold="1" page="1" pageScale="1" pageWidth="850" pageHeight="1100" math="0" shadow="0">
      <root>
        <mxCell id="0" />
        <mxCell id="1" parent="0" />
        <mxCell id="aqvt0W6XqnZ-W0Y4D_98-1" value="" style="rounded=0;whiteSpace=wrap;html=1;movable=0;resizable=0;rotatable=0;deletable=0;editable=0;locked=1;connectable=0;" vertex="1" parent="1">
          <mxGeometry x="10" y="140" width="840" height="910" as="geometry" />
        </mxCell>
        <mxCell id="lbu4Oa1PX6mIdvBtWeGq-9" value="&lt;p style=&quot;margin: 4px 0px 0px; text-align: center; font-size: 15px;&quot;&gt;&lt;font style=&quot;font-size: 15px;&quot;&gt;User/Customer&lt;/font&gt;&lt;/p&gt;&lt;hr style=&quot;font-size: 15px;&quot; size=&quot;1&quot;&gt;&lt;p style=&quot;margin: 0px ; margin-left: 4px&quot;&gt;+ Username: String&lt;br&gt;+ Email: String&lt;/p&gt;&lt;p style=&quot;margin: 0px ; margin-left: 4px&quot;&gt;+ Contact_No.: Int&lt;/p&gt;&lt;p style=&quot;margin: 0px ; margin-left: 4px&quot;&gt;+ Password: String&lt;/p&gt;&lt;hr size=&quot;1&quot;&gt;&lt;p style=&quot;margin: 0px ; margin-left: 4px&quot;&gt;&amp;nbsp; Login()&lt;/p&gt;&lt;p style=&quot;margin: 0px ; margin-left: 4px&quot;&gt;&amp;nbsp; Register()&lt;/p&gt;&lt;p style=&quot;margin: 0px ; margin-left: 4px&quot;&gt;&amp;nbsp; Browse Product()&lt;/p&gt;&lt;p style=&quot;margin: 0px ; margin-left: 4px&quot;&gt;&amp;nbsp; Update Profile()&lt;/p&gt;&lt;p style=&quot;margin: 0px ; margin-left: 4px&quot;&gt;&lt;br&gt;&lt;/p&gt;" style="verticalAlign=top;align=left;overflow=fill;fontSize=12;fontFamily=Helvetica;html=1;fillColor=#dae8fc;gradientColor=#7ea6e0;strokeColor=#6c8ebf;fontStyle=1" parent="1" vertex="1">
          <mxGeometry x="110" y="475" width="190" height="170" as="geometry" />
        </mxCell>
        <mxCell id="lbu4Oa1PX6mIdvBtWeGq-10" value="&lt;p style=&quot;margin: 4px 0px 0px; text-align: center; font-size: 15px;&quot;&gt;&lt;b style=&quot;&quot;&gt;&lt;font style=&quot;font-size: 15px;&quot;&gt;Admin&lt;/font&gt;&lt;/b&gt;&lt;/p&gt;&lt;hr style=&quot;font-size: 15px;&quot; size=&quot;1&quot;&gt;&lt;p style=&quot;margin: 0px ; margin-left: 4px&quot;&gt;&lt;b&gt;+ U&lt;span&gt;sername: String&lt;/span&gt;&lt;br&gt;&lt;/b&gt;&lt;/p&gt;&lt;p style=&quot;margin: 0px ; margin-left: 4px&quot;&gt;&lt;span&gt;&lt;b&gt;+&amp;nbsp; Email: String&amp;nbsp;&lt;/b&gt;&lt;/span&gt;&lt;/p&gt;&lt;p style=&quot;margin: 0px ; margin-left: 4px&quot;&gt;&lt;span&gt;&lt;b&gt;+&amp;nbsp; Password:String&lt;/b&gt;&lt;/span&gt;&lt;/p&gt;&lt;hr size=&quot;1&quot;&gt;&lt;p style=&quot;margin: 0px ; margin-left: 4px&quot;&gt;&lt;b&gt;&amp;nbsp; View Review , Rating &amp;amp; Feedback ()&lt;/b&gt;&lt;/p&gt;&lt;p style=&quot;margin: 0px ; margin-left: 4px&quot;&gt;&lt;b&gt;&amp;nbsp; Solve Review()&amp;nbsp;&lt;/b&gt;&lt;/p&gt;&lt;p style=&quot;margin: 0px ; margin-left: 4px&quot;&gt;&lt;b&gt;&amp;nbsp; Manage Product()&lt;/b&gt;&lt;/p&gt;&lt;p style=&quot;margin: 0px ; margin-left: 4px&quot;&gt;&lt;b&gt;&amp;nbsp; Manage User ()&lt;/b&gt;&lt;/p&gt;&lt;p style=&quot;margin: 0px ; margin-left: 4px&quot;&gt;&lt;b&gt;&amp;nbsp; View Order Details()&lt;/b&gt;&lt;/p&gt;&lt;p style=&quot;margin: 0px ; margin-left: 4px&quot;&gt;&lt;b&gt;&amp;nbsp; Check Stocks ()&lt;/b&gt;&lt;/p&gt;&lt;p style=&quot;margin: 0px ; margin-left: 4px&quot;&gt;&lt;b&gt;&amp;nbsp; Manage Payment&lt;/b&gt;&lt;/p&gt;&lt;p style=&quot;margin: 0px ; margin-left: 4px&quot;&gt;&lt;b&gt;&amp;nbsp; Return, Refund()&lt;/b&gt;&lt;/p&gt;&lt;p style=&quot;margin: 0px ; margin-left: 4px&quot;&gt;&lt;b&gt;&amp;nbsp; Add Discount/Coupon ()&lt;/b&gt;&lt;/p&gt;" style="verticalAlign=top;align=left;overflow=fill;fontSize=12;fontFamily=Helvetica;html=1;fillColor=#dae8fc;gradientColor=#7ea6e0;strokeColor=#6c8ebf;" parent="1" vertex="1">
          <mxGeometry x="480" y="440" width="210" height="240" as="geometry" />
        </mxCell>
        <mxCell id="lbu4Oa1PX6mIdvBtWeGq-11" value="&lt;p style=&quot;margin: 0px ; margin-top: 4px ; text-align: center&quot;&gt;&lt;span&gt;&lt;font style=&quot;font-size: 15px;&quot;&gt;Payment&lt;/font&gt;&lt;/span&gt;&lt;/p&gt;&lt;hr size=&quot;1&quot;&gt;&lt;p style=&quot;margin: 0px ; margin-left: 4px&quot;&gt;+ Payment Id: Int&lt;/p&gt;&lt;p style=&quot;margin: 0px ; margin-left: 4px&quot;&gt;+ Order Id: Int&lt;/p&gt;&lt;p style=&quot;margin: 0px ; margin-left: 4px&quot;&gt;+ Payment Date : Int&amp;nbsp;&lt;/p&gt;&lt;p style=&quot;margin: 0px ; margin-left: 4px&quot;&gt;+ Amount: Int&lt;/p&gt;&lt;p style=&quot;margin: 0px ; margin-left: 4px&quot;&gt;+ Payment Method: String&lt;/p&gt;&lt;hr size=&quot;1&quot;&gt;&lt;p style=&quot;margin: 0px ; margin-left: 4px&quot;&gt;&amp;nbsp;Make Payment ()&lt;/p&gt;&lt;p style=&quot;margin: 0px ; margin-left: 4px&quot;&gt;Generate Buy Receipt()&lt;/p&gt;" style="verticalAlign=top;align=left;overflow=fill;fontSize=12;fontFamily=Helvetica;html=1;fillColor=#dae8fc;strokeColor=#6c8ebf;gradientColor=#7ea6e0;fontStyle=1" parent="1" vertex="1">
          <mxGeometry x="640" y="200" width="190" height="160" as="geometry" />
        </mxCell>
        <mxCell id="lbu4Oa1PX6mIdvBtWeGq-13" value="&lt;p style=&quot;margin: 4px 0px 0px; text-align: center; font-size: 15px;&quot;&gt;&lt;b style=&quot;&quot;&gt;&lt;font style=&quot;font-size: 15px;&quot;&gt;Cart &amp;amp; Checkout&lt;/font&gt;&lt;/b&gt;&lt;/p&gt;&lt;hr style=&quot;font-size: 15px;&quot; size=&quot;1&quot;&gt;&lt;p style=&quot;margin: 0px 0px 0px 4px&quot;&gt;&lt;b&gt;+ Total&amp;nbsp; Amount: Int&amp;nbsp;&lt;/b&gt;&lt;/p&gt;&lt;p style=&quot;margin: 0px 0px 0px 4px&quot;&gt;&lt;b&gt;+ Name: String&amp;nbsp;&lt;/b&gt;&lt;/p&gt;&lt;p style=&quot;margin: 0px 0px 0px 4px&quot;&gt;&lt;b&gt;+ Email: String&lt;/b&gt;&lt;/p&gt;&lt;p style=&quot;margin: 0px 0px 0px 4px&quot;&gt;&lt;b&gt;+ Contact_No.: Int&lt;/b&gt;&lt;/p&gt;&lt;p style=&quot;margin: 0px 0px 0px 4px&quot;&gt;&lt;b&gt;+ State: String&lt;br&gt;&lt;/b&gt;&lt;/p&gt;&lt;p style=&quot;margin: 0px 0px 0px 4px&quot;&gt;&lt;b&gt;+ City:String&amp;nbsp;&lt;/b&gt;&lt;/p&gt;&lt;p style=&quot;margin: 0px 0px 0px 4px&quot;&gt;&lt;b&gt;+ Pin Code: Int&lt;br&gt;&lt;/b&gt;&lt;/p&gt;&lt;p style=&quot;margin: 0px 0px 0px 4px&quot;&gt;&lt;b&gt;+ Address: String&lt;/b&gt;&lt;/p&gt;&lt;hr size=&quot;1&quot;&gt;&lt;p style=&quot;margin: 0px ; margin-left: 4px&quot;&gt;&lt;b&gt;&amp;nbsp;&amp;nbsp;&lt;span&gt;Add Item()&amp;nbsp;&lt;/span&gt;&lt;/b&gt;&lt;/p&gt;&lt;p style=&quot;margin: 0px ; margin-left: 4px&quot;&gt;&lt;b&gt;&amp;nbsp; Remove Item ()&lt;/b&gt;&lt;/p&gt;&lt;p style=&quot;margin: 0px ; margin-left: 4px&quot;&gt;&lt;b&gt;&amp;nbsp; View cart Details ()&lt;/b&gt;&lt;/p&gt;&lt;p style=&quot;margin: 0px ; margin-left: 4px&quot;&gt;&lt;b&gt;&amp;nbsp; Select Payment ( )&lt;/b&gt;&lt;/p&gt;&lt;p style=&quot;margin: 0px ; margin-left: 4px&quot;&gt;&lt;b&gt;&amp;nbsp; Update Quantity ()&lt;/b&gt;&lt;/p&gt;&lt;p style=&quot;margin: 0px ; margin-left: 4px&quot;&gt;&lt;br&gt;&lt;/p&gt;" style="verticalAlign=top;align=left;overflow=fill;fontSize=12;fontFamily=Helvetica;html=1;fillColor=#dae8fc;gradientColor=#7ea6e0;strokeColor=#6c8ebf;" parent="1" vertex="1">
          <mxGeometry x="570" y="760" width="190" height="240" as="geometry" />
        </mxCell>
        <mxCell id="lbu4Oa1PX6mIdvBtWeGq-14" value="&lt;p style=&quot;margin: 4px 0px 0px; text-align: center;&quot;&gt;&lt;font style=&quot;font-size: 15px;&quot;&gt;Product&lt;/font&gt;&lt;/p&gt;&lt;hr style=&quot;font-size: 12px;&quot;&gt;&lt;p style=&quot;margin: 0px 0px 0px 4px; font-size: 12px;&quot;&gt;+ Product Id: Int&lt;br style=&quot;font-size: 12px;&quot;&gt;&lt;/p&gt;&lt;p style=&quot;margin: 0px 0px 0px 4px; font-size: 12px;&quot;&gt;+ Name: String&lt;/p&gt;&lt;p style=&quot;margin: 0px 0px 0px 4px; font-size: 12px;&quot;&gt;+ Description: String&amp;nbsp;&lt;/p&gt;&lt;p style=&quot;margin: 0px 0px 0px 4px; font-size: 12px;&quot;&gt;+ Price : Int&lt;/p&gt;&lt;hr style=&quot;font-size: 12px;&quot;&gt;&lt;p style=&quot;margin: 0px 0px 0px 4px; font-size: 12px;&quot;&gt;&lt;span style=&quot;font-size: 12px;&quot;&gt;&amp;nbsp;Get Product Detail()&amp;nbsp;&amp;nbsp;&lt;/span&gt;&lt;br style=&quot;font-size: 12px;&quot;&gt;&lt;/p&gt;&lt;p style=&quot;margin: 0px 0px 0px 4px; font-size: 12px;&quot;&gt;&amp;nbsp;Check Discount()&lt;/p&gt;&lt;p style=&quot;margin: 0px 0px 0px 4px; font-size: 12px;&quot;&gt;&lt;br style=&quot;font-size: 12px;&quot;&gt;&lt;/p&gt;" style="verticalAlign=top;align=left;overflow=fill;fontSize=12;fontFamily=Helvetica;html=1;fillColor=#dae8fc;strokeColor=#6c8ebf;gradientColor=#7ea6e0;fontStyle=1" parent="1" vertex="1">
          <mxGeometry x="30" y="200" width="190" height="150" as="geometry" />
        </mxCell>
        <mxCell id="lbu4Oa1PX6mIdvBtWeGq-16" value="&lt;p style=&quot;margin: 4px 0px 0px; text-align: center; font-size: 14px;&quot;&gt;&lt;b style=&quot;&quot;&gt;&lt;font style=&quot;font-size: 14px;&quot;&gt;Review Rating &amp;amp; Feedback&lt;/font&gt;&lt;/b&gt;&lt;/p&gt;&lt;hr style=&quot;font-size: 14px;&quot; size=&quot;1&quot;&gt;&lt;p style=&quot;margin: 0px 0px 0px 4px&quot;&gt;&lt;b&gt;+ Product&amp;nbsp; Id : Int&lt;/b&gt;&lt;/p&gt;&lt;p style=&quot;margin: 0px 0px 0px 4px&quot;&gt;&lt;b&gt;+ Comments: String&lt;/b&gt;&lt;/p&gt;&lt;p style=&quot;margin: 0px 0px 0px 4px&quot;&gt;&lt;b&gt;+ User Id : Int&amp;nbsp;&lt;/b&gt;&lt;/p&gt;&lt;hr size=&quot;1&quot;&gt;&lt;p style=&quot;margin: 0px ; margin-left: 4px&quot;&gt;&lt;b&gt;&lt;span&gt;&amp;nbsp;&lt;/span&gt;&lt;span&gt;Submit Review ()&lt;/span&gt;&lt;/b&gt;&lt;/p&gt;&lt;p style=&quot;margin: 0px ; margin-left: 4px&quot;&gt;&lt;b&gt;&amp;nbsp;Provide Feedback ()&amp;nbsp;&lt;/b&gt;&lt;/p&gt;&lt;p style=&quot;margin: 0px ; margin-left: 4px&quot;&gt;&lt;b&gt;&amp;nbsp;View Review()&lt;/b&gt;&lt;/p&gt;&lt;p style=&quot;margin: 0px ; margin-left: 4px&quot;&gt;&lt;b&gt;&amp;nbsp;Rating or Feedback()&lt;/b&gt;&lt;/p&gt;&lt;p style=&quot;margin: 0px 0px 0px 4px&quot;&gt;&lt;br&gt;&lt;/p&gt;" style="verticalAlign=top;align=left;overflow=fill;fontSize=12;fontFamily=Helvetica;html=1;fillColor=#dae8fc;gradientColor=#7ea6e0;strokeColor=#6c8ebf;" parent="1" vertex="1">
          <mxGeometry x="50" y="800" width="190" height="160" as="geometry" />
        </mxCell>
        <mxCell id="lbu4Oa1PX6mIdvBtWeGq-17" value="&lt;p style=&quot;margin: 0px ; margin-top: 4px ; text-align: center&quot;&gt;&lt;span&gt;&lt;font style=&quot;font-size: 15px;&quot;&gt;Order&lt;/font&gt;&lt;/span&gt;&lt;/p&gt;&lt;hr size=&quot;1&quot;&gt;&lt;p style=&quot;margin: 0px 0px 0px 4px&quot;&gt;+ User Id: Int&lt;/p&gt;&lt;p style=&quot;margin: 0px 0px 0px 4px&quot;&gt;+ Order Date: Int&lt;/p&gt;&lt;p style=&quot;margin: 0px 0px 0px 4px&quot;&gt;+ Total Amount: Int&amp;nbsp;&lt;/p&gt;&lt;p style=&quot;margin: 0px 0px 0px 4px&quot;&gt;+ Order Id: Int&lt;/p&gt;&lt;hr size=&quot;1&quot;&gt;&lt;p style=&quot;margin: 0px ; margin-left: 4px&quot;&gt;&lt;span&gt;&amp;nbsp;&lt;/span&gt;&lt;span&gt;Place Order ()&lt;/span&gt;&lt;/p&gt;&lt;p style=&quot;margin: 0px ; margin-left: 4px&quot;&gt;&amp;nbsp;Cancel Order ()&lt;/p&gt;&lt;p style=&quot;margin: 0px 0px 0px 4px&quot;&gt;&lt;br&gt;&lt;/p&gt;" style="verticalAlign=top;align=left;overflow=fill;fontSize=12;fontFamily=Helvetica;html=1;fillColor=#dae8fc;strokeColor=#6c8ebf;gradientColor=#7ea6e0;fontStyle=1" parent="1" vertex="1">
          <mxGeometry x="350" y="200" width="190" height="150" as="geometry" />
        </mxCell>
        <mxCell id="MxGdCL4BsZ3yCEDb7gnJ-1" value="" style="endArrow=none;html=1;rounded=0;exitX=0.006;exitY=0.535;exitDx=0;exitDy=0;exitPerimeter=0;" parent="1" source="lbu4Oa1PX6mIdvBtWeGq-10" edge="1">
          <mxGeometry width="50" height="50" relative="1" as="geometry">
            <mxPoint x="470" y="572" as="sourcePoint" />
            <mxPoint x="302" y="570" as="targetPoint" />
          </mxGeometry>
        </mxCell>
        <mxCell id="MxGdCL4BsZ3yCEDb7gnJ-7" value="" style="endArrow=none;html=1;rounded=0;entryX=0.25;entryY=1;entryDx=0;entryDy=0;exitX=0;exitY=0.5;exitDx=0;exitDy=0;" parent="1" source="lbu4Oa1PX6mIdvBtWeGq-9" target="lbu4Oa1PX6mIdvBtWeGq-14" edge="1">
          <mxGeometry width="50" height="50" relative="1" as="geometry">
            <mxPoint x="220" y="390.0000000000001" as="sourcePoint" />
            <mxPoint x="40.82999999999993" y="391.63" as="targetPoint" />
            <Array as="points">
              <mxPoint x="78" y="560" />
            </Array>
          </mxGeometry>
        </mxCell>
        <mxCell id="MxGdCL4BsZ3yCEDb7gnJ-8" value="" style="endArrow=none;html=1;rounded=0;exitX=0.5;exitY=1;exitDx=0;exitDy=0;" parent="1" source="lbu4Oa1PX6mIdvBtWeGq-11" edge="1">
          <mxGeometry width="50" height="50" relative="1" as="geometry">
            <mxPoint x="674.59" y="390.0000000000001" as="sourcePoint" />
            <mxPoint x="260" y="475" as="targetPoint" />
            <Array as="points">
              <mxPoint x="735" y="380" />
              <mxPoint x="260" y="380" />
            </Array>
          </mxGeometry>
        </mxCell>
        <mxCell id="MxGdCL4BsZ3yCEDb7gnJ-9" value="" style="endArrow=none;html=1;rounded=0;exitX=0;exitY=0.533;exitDx=0;exitDy=0;exitPerimeter=0;entryX=0.674;entryY=-0.006;entryDx=0;entryDy=0;entryPerimeter=0;" parent="1" source="lbu4Oa1PX6mIdvBtWeGq-17" target="lbu4Oa1PX6mIdvBtWeGq-9" edge="1">
          <mxGeometry width="50" height="50" relative="1" as="geometry">
            <mxPoint x="329.16999999999996" y="420.0000000000001" as="sourcePoint" />
            <mxPoint x="240" y="460" as="targetPoint" />
            <Array as="points">
              <mxPoint x="240" y="280" />
            </Array>
          </mxGeometry>
        </mxCell>
        <mxCell id="MxGdCL4BsZ3yCEDb7gnJ-10" value="" style="endArrow=none;html=1;rounded=0;entryX=0.5;entryY=0;entryDx=0;entryDy=0;exitX=0.189;exitY=1.001;exitDx=0;exitDy=0;exitPerimeter=0;" parent="1" source="lbu4Oa1PX6mIdvBtWeGq-9" target="lbu4Oa1PX6mIdvBtWeGq-16" edge="1">
          <mxGeometry width="50" height="50" relative="1" as="geometry">
            <mxPoint x="521.26" y="608.4000000000001" as="sourcePoint" />
            <mxPoint x="342.0899999999999" y="610.03" as="targetPoint" />
          </mxGeometry>
        </mxCell>
        <mxCell id="MxGdCL4BsZ3yCEDb7gnJ-11" value="" style="endArrow=none;html=1;rounded=0;entryX=0.884;entryY=1.015;entryDx=0;entryDy=0;exitX=0;exitY=0.5;exitDx=0;exitDy=0;entryPerimeter=0;" parent="1" source="lbu4Oa1PX6mIdvBtWeGq-13" target="lbu4Oa1PX6mIdvBtWeGq-9" edge="1">
          <mxGeometry width="50" height="50" relative="1" as="geometry">
            <mxPoint x="369.16999999999996" y="700.0000000000001" as="sourcePoint" />
            <mxPoint x="189.99999999999991" y="701.63" as="targetPoint" />
            <Array as="points">
              <mxPoint x="280" y="880" />
            </Array>
          </mxGeometry>
        </mxCell>
        <mxCell id="MxGdCL4BsZ3yCEDb7gnJ-12" value="1" style="text;html=1;align=center;verticalAlign=middle;resizable=0;points=[];autosize=1;" parent="1" vertex="1">
          <mxGeometry x="90" y="540" width="20" height="20" as="geometry" />
        </mxCell>
        <mxCell id="MxGdCL4BsZ3yCEDb7gnJ-13" value="0 . *" style="text;html=1;align=center;verticalAlign=middle;resizable=0;points=[];autosize=1;" parent="1" vertex="1">
          <mxGeometry x="70" y="350" width="40" height="20" as="geometry" />
        </mxCell>
        <mxCell id="MxGdCL4BsZ3yCEDb7gnJ-14" value="1" style="text;html=1;align=center;verticalAlign=middle;resizable=0;points=[];autosize=1;" parent="1" vertex="1">
          <mxGeometry x="220" y="455" width="20" height="20" as="geometry" />
        </mxCell>
        <mxCell id="MxGdCL4BsZ3yCEDb7gnJ-17" value="0 . *" style="text;html=1;align=center;verticalAlign=middle;resizable=0;points=[];autosize=1;" parent="1" vertex="1">
          <mxGeometry x="310" y="260" width="40" height="20" as="geometry" />
        </mxCell>
        <mxCell id="MxGdCL4BsZ3yCEDb7gnJ-19" value="1" style="text;html=1;align=center;verticalAlign=middle;resizable=0;points=[];autosize=1;" parent="1" vertex="1">
          <mxGeometry x="260" y="455" width="20" height="20" as="geometry" />
        </mxCell>
        <mxCell id="MxGdCL4BsZ3yCEDb7gnJ-20" value="1" style="text;html=1;align=center;verticalAlign=middle;resizable=0;points=[];autosize=1;" parent="1" vertex="1">
          <mxGeometry x="710" y="360" width="20" height="20" as="geometry" />
        </mxCell>
        <mxCell id="MxGdCL4BsZ3yCEDb7gnJ-21" value="1" style="text;html=1;align=center;verticalAlign=middle;resizable=0;points=[];autosize=1;" parent="1" vertex="1">
          <mxGeometry x="120" y="645" width="20" height="20" as="geometry" />
        </mxCell>
        <mxCell id="MxGdCL4BsZ3yCEDb7gnJ-22" value="0 . *" style="text;html=1;align=center;verticalAlign=middle;resizable=0;points=[];autosize=1;" parent="1" vertex="1">
          <mxGeometry x="105" y="780" width="40" height="20" as="geometry" />
        </mxCell>
        <mxCell id="MxGdCL4BsZ3yCEDb7gnJ-23" value="1" style="text;html=1;align=center;verticalAlign=middle;resizable=0;points=[];autosize=1;" parent="1" vertex="1">
          <mxGeometry x="535" y="855" width="30" height="30" as="geometry" />
        </mxCell>
        <mxCell id="MxGdCL4BsZ3yCEDb7gnJ-24" value="1" style="text;html=1;align=center;verticalAlign=middle;resizable=0;points=[];autosize=1;" parent="1" vertex="1">
          <mxGeometry x="260" y="645" width="20" height="20" as="geometry" />
        </mxCell>
        <mxCell id="MxGdCL4BsZ3yCEDb7gnJ-25" value="1" style="text;html=1;align=center;verticalAlign=middle;resizable=0;points=[];autosize=1;" parent="1" vertex="1">
          <mxGeometry x="460" y="550" width="20" height="20" as="geometry" />
        </mxCell>
        <mxCell id="MxGdCL4BsZ3yCEDb7gnJ-26" value="1 . *" style="text;html=1;align=center;verticalAlign=middle;resizable=0;points=[];autosize=1;" parent="1" vertex="1">
          <mxGeometry x="300" y="550" width="40" height="20" as="geometry" />
        </mxCell>
        <mxCell id="MxGdCL4BsZ3yCEDb7gnJ-28" value="" style="endArrow=none;html=1;rounded=0;exitX=0.196;exitY=0.002;exitDx=0;exitDy=0;exitPerimeter=0;" parent="1" source="lbu4Oa1PX6mIdvBtWeGq-10" edge="1">
          <mxGeometry width="50" height="50" relative="1" as="geometry">
            <mxPoint x="489.26" y="430.0000000000001" as="sourcePoint" />
            <mxPoint x="158" y="350" as="targetPoint" />
            <Array as="points">
              <mxPoint x="521" y="400" />
              <mxPoint x="158" y="400" />
            </Array>
          </mxGeometry>
        </mxCell>
        <mxCell id="MxGdCL4BsZ3yCEDb7gnJ-29" value="" style="endArrow=none;html=1;rounded=0;entryX=1;entryY=0.5;entryDx=0;entryDy=0;" parent="1" target="lbu4Oa1PX6mIdvBtWeGq-17" edge="1">
          <mxGeometry width="50" height="50" relative="1" as="geometry">
            <mxPoint x="600" y="441" as="sourcePoint" />
            <mxPoint x="460" y="391.6" as="targetPoint" />
            <Array as="points">
              <mxPoint x="600" y="275" />
            </Array>
          </mxGeometry>
        </mxCell>
        <mxCell id="MxGdCL4BsZ3yCEDb7gnJ-30" value="" style="endArrow=none;html=1;rounded=0;exitX=0.848;exitY=1.023;exitDx=0;exitDy=0;exitPerimeter=0;entryX=1;entryY=0.5;entryDx=0;entryDy=0;" parent="1" source="lbu4Oa1PX6mIdvBtWeGq-11" target="lbu4Oa1PX6mIdvBtWeGq-10" edge="1">
          <mxGeometry width="50" height="50" relative="1" as="geometry">
            <mxPoint x="879.26" y="558.4000000000001" as="sourcePoint" />
            <mxPoint x="700" y="560" as="targetPoint" />
            <Array as="points">
              <mxPoint x="800" y="560" />
            </Array>
          </mxGeometry>
        </mxCell>
        <mxCell id="MxGdCL4BsZ3yCEDb7gnJ-31" value="" style="endArrow=none;html=1;rounded=0;exitX=0;exitY=0.75;exitDx=0;exitDy=0;" parent="1" source="lbu4Oa1PX6mIdvBtWeGq-10" edge="1">
          <mxGeometry width="50" height="50" relative="1" as="geometry">
            <mxPoint x="459.26" y="920.0000000000001" as="sourcePoint" />
            <mxPoint x="244" y="920" as="targetPoint" />
            <Array as="points">
              <mxPoint x="360" y="620" />
              <mxPoint x="360" y="920" />
            </Array>
          </mxGeometry>
        </mxCell>
        <mxCell id="MxGdCL4BsZ3yCEDb7gnJ-33" value="1" style="text;html=1;align=center;verticalAlign=middle;resizable=0;points=[];autosize=1;" parent="1" vertex="1">
          <mxGeometry x="460" y="600" width="20" height="20" as="geometry" />
        </mxCell>
        <mxCell id="MxGdCL4BsZ3yCEDb7gnJ-35" value="1" style="text;html=1;align=center;verticalAlign=middle;resizable=0;points=[];autosize=1;" parent="1" vertex="1">
          <mxGeometry x="690" y="540" width="20" height="20" as="geometry" />
        </mxCell>
        <mxCell id="MxGdCL4BsZ3yCEDb7gnJ-36" value="1" style="text;html=1;align=center;verticalAlign=middle;resizable=0;points=[];autosize=1;" parent="1" vertex="1">
          <mxGeometry x="600" y="420" width="20" height="20" as="geometry" />
        </mxCell>
        <mxCell id="MxGdCL4BsZ3yCEDb7gnJ-37" value="1" style="text;html=1;align=center;verticalAlign=middle;resizable=0;points=[];autosize=1;" parent="1" vertex="1">
          <mxGeometry x="500" y="420" width="20" height="20" as="geometry" />
        </mxCell>
        <mxCell id="MxGdCL4BsZ3yCEDb7gnJ-38" value="0 . *" style="text;html=1;align=center;verticalAlign=middle;resizable=0;points=[];autosize=1;" parent="1" vertex="1">
          <mxGeometry x="240" y="900" width="40" height="20" as="geometry" />
        </mxCell>
        <mxCell id="MxGdCL4BsZ3yCEDb7gnJ-39" value="0 . *" style="text;html=1;align=center;verticalAlign=middle;resizable=0;points=[];autosize=1;" parent="1" vertex="1">
          <mxGeometry x="160" y="350" width="40" height="20" as="geometry" />
        </mxCell>
        <mxCell id="MxGdCL4BsZ3yCEDb7gnJ-40" value="0 . *" style="text;html=1;align=center;verticalAlign=middle;resizable=0;points=[];autosize=1;" parent="1" vertex="1">
          <mxGeometry x="540" y="250" width="40" height="20" as="geometry" />
        </mxCell>
        <mxCell id="MxGdCL4BsZ3yCEDb7gnJ-41" value="0 . *" style="text;html=1;align=center;verticalAlign=middle;resizable=0;points=[];autosize=1;" parent="1" vertex="1">
          <mxGeometry x="760" y="360" width="40" height="20" as="geometry" />
        </mxCell>
      </root>
    </mxGraphModel>
  </diagram>
</mxfile>
